<?xml version="1.0" standalone="no"?>
<!DOCTYPE svg PUBLIC "-//W3C//DTD SVG 20010904//EN"
 "http://www.w3.org/TR/2001/REC-SVG-20010904/DTD/svg10.dtd">
<svg version="1.0" xmlns="http://www.w3.org/2000/svg"
 width="960.000000pt" height="960.000000pt" viewBox="0 0 960.000000 960.000000"
 preserveAspectRatio="xMidYMid meet">
<metadata>
Created by potrace 1.11, written by Peter Selinger 2001-2013
</metadata>
<g transform="translate(0.000000,960.000000) scale(0.100000,-0.100000)"
fill="#000000" stroke="none">
<path d="M3876 7255 c4 -27 8 -59 9 -70 5 -36 44 -179 68 -250 63 -184 171
-379 291 -525 25 -29 44 -55 43 -56 -1 0 -40 -21 -87 -45 -47 -24 -125 -68
-175 -97 -49 -30 -99 -60 -110 -66 -11 -6 -79 -51 -151 -99 -148 -98 -131 -96
-269 -47 -159 56 -450 208 -463 241 -2 5 -8 9 -13 9 -21 0 -160 130 -228 215
-92 113 -167 245 -207 365 l-19 55 -5 -40 c-9 -71 -1 -187 20 -281 7 -27 13
-56 15 -65 15 -71 118 -273 175 -343 16 -20 86 -99 110 -125 69 -75 246 -204
360 -261 36 -19 67 -35 69 -37 3 -2 -4 -11 -15 -21 -31 -28 -247 -188 -272
-201 -22 -12 -253 -9 -352 4 -19 3 -60 7 -90 10 -30 3 -73 8 -95 11 -22 3 -53
8 -70 10 -16 2 -55 9 -85 15 -30 7 -59 12 -65 13 -67 13 -216 55 -285 81 -25
9 -57 20 -71 24 -97 31 -317 149 -435 233 -218 155 -425 386 -560 626 -26 45
-51 85 -57 89 -6 3 -7 1 -3 -5 3 -6 11 -32 16 -59 6 -26 12 -52 14 -58 1 -5 8
-30 15 -55 7 -25 18 -58 25 -75 8 -16 17 -41 21 -55 29 -95 140 -291 242 -428
60 -80 226 -252 301 -312 24 -19 56 -45 70 -58 48 -40 194 -137 292 -193 156
-90 310 -160 464 -212 36 -12 67 -26 68 -30 7 -22 -376 -205 -562 -269 -189
-66 -203 -68 -283 -48 -88 21 -215 58 -242 69 -11 5 -49 19 -85 31 -137 47
-438 188 -511 241 -15 10 -30 19 -34 19 -12 0 -208 138 -291 204 -90 72 -222
199 -304 291 -60 68 -58 64 18 -55 307 -476 816 -898 1357 -1125 231 -98 512
-156 742 -156 68 0 123 -1 123 -3 0 -10 -142 -85 -206 -109 -78 -30 -146 -45
-254 -54 -98 -9 -343 -8 -400 1 -25 4 -61 10 -80 12 -51 7 -148 35 -197 55
-24 10 -43 17 -43 15 0 -4 79 -53 105 -66 6 -3 30 -18 55 -34 114 -74 364
-185 490 -217 167 -42 328 -52 470 -29 l76 12 172 -73 c94 -40 170 -74 169
-75 -1 -1 -40 -4 -87 -8 -47 -3 -95 -8 -107 -10 -11 -3 -43 -8 -70 -12 -26 -5
-50 -9 -53 -9 -3 -1 -23 -5 -45 -10 -22 -5 -42 -10 -45 -10 -124 -29 -309
-115 -420 -195 -60 -44 -60 -46 2 -26 41 13 102 29 159 40 109 23 405 23 519
1 14 -3 63 -10 110 -15 47 -6 96 -13 110 -15 27 -4 128 -16 170 -21 14 -1 36
-3 49 -3 37 -1 21 -9 -34 -17 -28 -3 -58 -8 -67 -10 -10 -2 -27 -6 -37 -8 -55
-13 -206 -70 -267 -102 -137 -72 -271 -173 -379 -284 l-50 -51 81 44 c146 78
395 181 494 203 11 2 28 6 38 8 72 19 219 47 264 51 30 3 65 8 78 10 74 14
390 25 390 13 0 -4 -6 -8 -12 -9 -7 0 -20 -2 -28 -4 -8 -2 -26 -5 -40 -8 -14
-3 -68 -20 -120 -37 -257 -87 -465 -220 -594 -383 l-38 -47 113 76 c122 81
386 216 509 259 79 28 234 72 285 81 17 2 37 6 45 9 63 16 287 24 354 11 16
-3 50 -8 75 -12 44 -7 42 -8 -64 -26 -132 -23 -258 -63 -381 -123 -85 -41
-230 -131 -264 -165 -9 -8 -34 -31 -56 -51 -54 -48 -177 -189 -170 -196 3 -3
18 4 33 17 90 70 151 108 258 161 65 32 127 59 136 59 10 0 20 4 23 9 4 7 100
38 141 47 6 1 37 7 70 15 155 33 238 41 435 39 224 -1 289 -4 283 -12 -2 -5
-12 -8 -21 -8 -9 0 -45 -9 -78 -19 -213 -67 -397 -185 -583 -372 -139 -140
-172 -185 -85 -113 201 163 491 304 719 349 139 27 395 24 443 -5 13 -8 13
-10 2 -8 -47 6 -208 -46 -334 -108 -150 -75 -296 -194 -372 -304 -34 -49 -56
-90 -27 -50 39 53 109 111 182 149 70 36 204 84 269 96 15 3 41 7 57 11 17 3
44 7 60 9 17 2 46 6 65 9 105 17 335 28 565 28 99 0 304 -1 455 -1 393 0 459
6 610 55 58 19 119 41 135 48 17 8 55 25 86 39 96 42 234 112 237 120 2 4 8 7
13 7 8 0 170 89 289 158 83 49 147 85 175 100 17 8 32 18 35 21 5 6 14 11 96
56 27 14 69 38 94 52 68 38 266 137 345 171 73 32 261 99 298 106 12 3 58 12
102 21 161 34 437 19 615 -31 133 -38 298 -106 501 -207 169 -83 186 -90 177
-67 -24 62 -117 204 -186 282 -15 17 -26 35 -24 40 1 5 -2 7 -6 4 -5 -3 -38
17 -73 45 -98 78 -111 90 -105 96 5 5 138 -104 144 -119 2 -5 9 -8 15 -8 6 0
-3 15 -20 33 -50 53 -104 132 -213 312 -56 94 -116 190 -133 215 -27 40 -212
278 -226 290 -3 3 -40 43 -81 90 -41 46 -92 101 -112 122 -47 47 -49 59 -4 24
19 -14 39 -26 44 -26 6 0 12 -3 14 -7 2 -5 43 -35 93 -68 107 -71 237 -175
320 -254 127 -121 189 -198 302 -377 23 -36 2 153 -33 291 -15 59 -47 160 -64
200 -69 167 -149 316 -253 470 -23 33 -33 54 -24 46 10 -8 20 -12 23 -9 12 12
-79 218 -154 348 -202 351 -550 709 -952 977 -186 124 -416 245 -590 312 -47
18 -92 36 -101 41 -44 23 -362 102 -504 126 -11 1 -54 10 -95 18 -41 8 -95 17
-120 21 -25 3 -52 8 -60 10 -8 2 -40 7 -70 10 -30 3 -62 8 -70 10 -16 4 -117
15 -190 21 -25 2 -83 6 -130 10 -158 13 -556 7 -635 -10 -11 -2 -42 -7 -70
-10 -27 -4 -61 -9 -75 -11 -14 -3 -34 -7 -45 -9 -11 -2 -40 -9 -65 -16 -25 -7
-52 -13 -60 -15 -82 -16 -309 -113 -380 -162 l-35 -25 30 6 c17 3 47 9 69 12
21 3 48 8 60 10 11 2 35 7 51 9 17 3 64 12 106 20 145 27 291 42 383 40 65 -2
252 -15 301 -20 17 -2 59 -7 95 -10 36 -3 74 -8 85 -10 11 -2 33 -4 49 -4 16
-1 27 -3 25 -6 -3 -2 -72 -7 -155 -10 -155 -5 -190 -8 -339 -26 -238 -28 -483
-81 -670 -145 -55 -19 -108 -34 -117 -34 -9 0 -41 14 -70 31 -266 156 -463
400 -595 734 l-24 60 7 -50z m3419 -3964 c-12 -11 -95 -56 -230 -125 -107 -54
-146 -72 -247 -112 -35 -14 -72 -29 -83 -34 -40 -18 -257 -81 -263 -76 -1 2
39 18 90 36 96 34 315 125 448 186 41 19 122 57 180 84 112 52 119 55 105 41z"/>
<path d="M1010 4280 c0 -5 5 -10 11 -10 5 0 7 5 4 10 -3 6 -8 10 -11 10 -2 0
-4 -4 -4 -10z"/>
<path d="M1044 4261 c7 -11 46 -35 46 -28 0 3 -12 12 -26 22 -15 9 -23 12 -20
6z"/>
</g>
</svg>
